HIERARCHY
ROOT Hips
{
  OFFSET 26.100 25.894 -223.601
  CHANNELS 6 Xposition Yposition Zposition Zrotation Xrotation Yrotation
  JOINT LeftUpLeg
  {
    OFFSET 7.954 -6.915 2.921
    CHANNELS 6 Xposition Yposition Zposition Zrotation Xrotation Yrotation
    JOINT LeftLeg
    {
      OFFSET -0.000 -47.460 0.000
      CHANNELS 6 Xposition Yposition Zposition Zrotation Xrotation Yrotation
      JOINT LeftFoot
      {
        OFFSET -0.000 -40.255 -0.000
        CHANNELS 6 Xposition Yposition Zposition Zrotation Xrotation Yrotation
        End Site
        {
          OFFSET 0.000 -8.266 4.772
        }
      }
    }
  }
  JOINT RightUpLeg
  {
    OFFSET -7.787 -7.224 2.826
    CHANNELS 6 Xposition Yposition Zposition Zrotation Xrotation Yrotation
    JOINT RightLeg
    {
      OFFSET 0.000 -48.348 0.000
      CHANNELS 6 Xposition Yposition Zposition Zrotation Xrotation Yrotation
      JOINT RightFoot
      {
        OFFSET -0.000 -40.904 -0.000
        CHANNELS 6 Xposition Yposition Zposition Zrotation Xrotation Yrotation
        End Site
        {
          OFFSET 0.000 -8.003 4.620
        }
      }
    }
  }
  JOINT Spine
  {
    OFFSET 0.000 5.820 -5.820
    CHANNELS 6 Xposition Yposition Zposition Zrotation Xrotation Yrotation
    JOINT LeftShoulder
    {
      OFFSET -0.000 39.427 0.000
      CHANNELS 6 Xposition Yposition Zposition Zrotation Xrotation Yrotation
      JOINT LeftArm
      {
        OFFSET 21.232 0.000 -0.000
        CHANNELS 6 Xposition Yposition Zposition Zrotation Xrotation Yrotation
        JOINT LeftForeArm
        {
          OFFSET 23.471 0.000 0.000
          CHANNELS 6 Xposition Yposition Zposition Zrotation Xrotation Yrotation
          JOINT LeftHand
          {
            OFFSET 26.271 -0.000 -0.000
            CHANNELS 6 Xposition Yposition Zposition Zrotation Xrotation Yrotation
            JOINT LeftHandThumb1
            {
            OFFSET 4.970 -0.620 3.390
            CHANNELS 6 Xposition Yposition Zposition Zrotation Xrotation Yrotation
              JOINT LeftHandThumb2
              {
              OFFSET 2.150 -0.000 0.000
              CHANNELS 6 Xposition Yposition Zposition Zrotation Xrotation Yrotation
                JOINT LeftHandThumb3
                {
                OFFSET 2.200 -0.000 0.000
                CHANNELS 6 Xposition Yposition Zposition Zrotation Xrotation Yrotation
                  JOINT LeftHandThumb4
                  {
                  OFFSET 1.700 -0.000 0.000
                  CHANNELS 6 Xposition Yposition Zposition Zrotation Xrotation Yrotation
                  }
                }
              }
            }
            JOINT LeftHandIndex1
            {
            OFFSET 8.730 0.680 2.070
            CHANNELS 6 Xposition Yposition Zposition Zrotation Xrotation Yrotation
              JOINT LeftHandIndex2
              {
              OFFSET 2.670 -0.000 0.000
              CHANNELS 6 Xposition Yposition Zposition Zrotation Xrotation Yrotation
                JOINT LeftHandIndex3
                {
                OFFSET 2.130 -0.000 0.000
                CHANNELS 6 Xposition Yposition Zposition Zrotation Xrotation Yrotation
                  JOINT LeftHandIndex4
                  {
                  OFFSET 1.800 -0.000 0.000
                  CHANNELS 6 Xposition Yposition Zposition Zrotation Xrotation Yrotation
                  }
                }
              }
            }
            JOINT LeftHandMiddle1
            {
            OFFSET 9.220 0.670 0.550
            CHANNELS 6 Xposition Yposition Zposition Zrotation Xrotation Yrotation
              JOINT LeftHandMiddle2
              {
              OFFSET 2.660 -0.000 0.000
              CHANNELS 6 Xposition Yposition Zposition Zrotation Xrotation Yrotation
                JOINT LeftHandMiddle3
                {
                OFFSET 2.280 -0.000 0.000
                CHANNELS 6 Xposition Yposition Zposition Zrotation Xrotation Yrotation
                  JOINT LeftHandMiddle4
                  {
                  OFFSET 1.500 -0.000 0.000
                  CHANNELS 6 Xposition Yposition Zposition Zrotation Xrotation Yrotation
                  }
                }
              }
            }
            JOINT LeftHandRing1
            {
            OFFSET 9.250 0.670 -1.130
            CHANNELS 6 Xposition Yposition Zposition Zrotation Xrotation Yrotation
              JOINT LeftHandRing2
              {
              OFFSET 2.470 -0.000 0.000
              CHANNELS 6 Xposition Yposition Zposition Zrotation Xrotation Yrotation
                JOINT LeftHandRing3
                {
                OFFSET 2.210 -0.000 0.000
                CHANNELS 6 Xposition Yposition Zposition Zrotation Xrotation Yrotation
                  JOINT LeftHandRing4
                  {
                  OFFSET 1.800 -0.000 0.000
                  CHANNELS 6 Xposition Yposition Zposition Zrotation Xrotation Yrotation
                  }
                }
              }
            }
            JOINT LeftHandPinky1
            {
            OFFSET 9.350 0.660 -2.720
            CHANNELS 6 Xposition Yposition Zposition Zrotation Xrotation Yrotation
              JOINT LeftHandPinky2
              {
              OFFSET 1.630 -0.000 0.000
              CHANNELS 6 Xposition Yposition Zposition Zrotation Xrotation Yrotation
                JOINT LeftHandPinky3
                {
                OFFSET 1.710 -0.000 0.000
                CHANNELS 6 Xposition Yposition Zposition Zrotation Xrotation Yrotation
                  JOINT LeftHandPinky4
                  {
                  OFFSET 1.800 -0.000 0.000
                  CHANNELS 6 Xposition Yposition Zposition Zrotation Xrotation Yrotation
                  }
                }
              }
            }
          }
        }
      }
    }
    JOINT RightShoulder
    {
      OFFSET -0.000 39.427 0.000
      CHANNELS 6 Xposition Yposition Zposition Zrotation Xrotation Yrotation
      JOINT RightArm
      {
        OFFSET -20.989 0.000 -0.000
        CHANNELS 6 Xposition Yposition Zposition Zrotation Xrotation Yrotation
        JOINT RightForeArm
        {
          OFFSET -23.929 0.000 0.000
          CHANNELS 6 Xposition Yposition Zposition Zrotation Xrotation Yrotation
          JOINT RightHand
          {
            OFFSET -26.322 0.000 -0.000
            CHANNELS 6 Xposition Yposition Zposition Zrotation Xrotation Yrotation
            JOINT RightHandThumb1
            {
            OFFSET -4.970 -0.620 3.390
            CHANNELS 6 Xposition Yposition Zposition Zrotation Xrotation Yrotation
              JOINT RightHandThumb2
              {
              OFFSET -2.150 0.000 0.000
              CHANNELS 6 Xposition Yposition Zposition Zrotation Xrotation Yrotation
                JOINT RightHandThumb3
                {
                OFFSET -2.200 0.000 0.000
                CHANNELS 6 Xposition Yposition Zposition Zrotation Xrotation Yrotation
                  JOINT RightHandThumb4
                  {
                  OFFSET -1.700 0.000 0.000
                  CHANNELS 6 Xposition Yposition Zposition Zrotation Xrotation Yrotation
                  }
                }
              }
            }
            JOINT RightHandIndex1
            {
            OFFSET -8.730 0.680 2.070
            CHANNELS 6 Xposition Yposition Zposition Zrotation Xrotation Yrotation
              JOINT RightHandIndex2
              {
              OFFSET -2.670 0.000 0.000
              CHANNELS 6 Xposition Yposition Zposition Zrotation Xrotation Yrotation
                JOINT RightHandIndex3
                {
                OFFSET -2.130 0.000 0.000
                CHANNELS 6 Xposition Yposition Zposition Zrotation Xrotation Yrotation
                  JOINT RightHandIndex4
                  {
                  OFFSET -1.800 0.000 0.000
                  CHANNELS 6 Xposition Yposition Zposition Zrotation Xrotation Yrotation
                  }
                }
              }
            }
            JOINT RightHandMiddle1
            {
            OFFSET -9.220 0.670 0.550
            CHANNELS 6 Xposition Yposition Zposition Zrotation Xrotation Yrotation
              JOINT RightHandMiddle2
              {
              OFFSET -2.660 0.000 0.000
              CHANNELS 6 Xposition Yposition Zposition Zrotation Xrotation Yrotation
                JOINT RightHandMiddle3
                {
                OFFSET -2.280 0.000 0.000
                CHANNELS 6 Xposition Yposition Zposition Zrotation Xrotation Yrotation
                  JOINT RightHandMiddle4
                  {
                  OFFSET -1.500 0.000 0.000
                  CHANNELS 6 Xposition Yposition Zposition Zrotation Xrotation Yrotation
                  }
                }
              }
            }
            JOINT RightHandRing1
            {
            OFFSET -9.250 0.670 -1.130
            CHANNELS 6 Xposition Yposition Zposition Zrotation Xrotation Yrotation
              JOINT RightHandRing2
              {
              OFFSET -2.470 0.000 0.000
              CHANNELS 6 Xposition Yposition Zposition Zrotation Xrotation Yrotation
                JOINT RightHandRing3
                {
                OFFSET -2.210 0.000 0.000
                CHANNELS 6 Xposition Yposition Zposition Zrotation Xrotation Yrotation
                  JOINT RightHandRing4
                  {
                  OFFSET -1.800 0.000 0.000
                  CHANNELS 6 Xposition Yposition Zposition Zrotation Xrotation Yrotation
                  }
                }
              }
            }
            JOINT RightHandPinky1
            {
            OFFSET -9.350 0.660 -2.720
            CHANNELS 6 Xposition Yposition Zposition Zrotation Xrotation Yrotation
              JOINT RightHandPinky2
              {
              OFFSET -1.630 0.000 0.000
              CHANNELS 6 Xposition Yposition Zposition Zrotation Xrotation Yrotation
                JOINT RightHandPinky3
                {
                OFFSET -1.710 0.000 0.000
                CHANNELS 6 Xposition Yposition Zposition Zrotation Xrotation Yrotation
                  JOINT RightHandPinky4
                  {
                  OFFSET -1.800 0.000 0.000
                  CHANNELS 6 Xposition Yposition Zposition Zrotation Xrotation Yrotation
                  }
                }
              }
            }
          }
        }
      }
    }
    JOINT Neck
    {
      OFFSET -0.000 39.427 0.000
      CHANNELS 6 Xposition Yposition Zposition Zrotation Xrotation Yrotation
      JOINT Head
      {
        OFFSET -0.000 16.455 -0.000
        CHANNELS 6 Xposition Yposition Zposition Zrotation Xrotation Yrotation
        End Site
        {
          OFFSET -0.000 0.066 -0.000
        }
      }
    }
  }
}
MOTION
Frames:	6
Frame Time:	0.0333333
5.62846 27.4248 -248.015 0.210707 14.4972 -3.47383 8.00423 -7.34274 2.68826 5.75474 -11.1238 0.614345 -2.6077e-06 -47.7715 -4.76837e-05 -3.86021 8.90042 0.598128 0 -40.8572 4.76837e-05 11.7861 -17.6201 10.1957 -7.83423 -7.41772 2.563 -0.703263 -16.4286 -0.710432 0 -47.5963 -4.76837e-05 3.70014 12.1676 -0.780926 -2.98023e-06 -41.0405 2.38419e-05 -9.90575 -15.6164 -8.25206 -1.49012e-06 6.14577 -6.14572 0.70005 -11.9633 -0.816323 -4.47035e-06 39.4263 -4.76837e-05 -33.0396 1.40873e-05 -2.0863 20.9541 -1.19209e-05 -2.38419e-05 -41.0302 44.037 -8.4857 24.8898 4.76837e-05 -1.19209e-05 -0.000254558 -1.19528e-05 -84.6233 29.1528 -1.19209e-05 -5.96046e-06 -17.1559 0.0836255 1.64658 0.0062 0.0497 0.0339 0 0 0 0 0.0215 0 0 0 0 0 0.022 0 0 0 0 0 0.017 0 0 0 0 -0.0068 0.0873 0.0207 0 0 0 0 0.0267 0 0 0 0 0 0.0213 0 0 0 0 0 0.018 0 0 0 0 -0.0067 0.0922 0.0055 0 0 0 0 0.0266 0 0 0 0 0 0.0228 0 0 0 0 0 0.015 0 0 0 0 -0.0067 0.0925 -0.0113 0 0 0 0 0.0247 0 0 0 0 0 0.0221 0 0 0 0 0 0.018 0 0 0 0 -0.0066 0.0935 -0.0272 0 0 0 0 0.0163 0 0 0 0 0 0.0171 0 0 0 0 0 0.018 0 0 0 0 -4.47035e-06 39.4263 -4.76837e-05 30.2884 -3.24501e-06 2.18121 -20.0427 5.96046e-06 4.76837e-05 43.7267 36.5682 -1.62578 -24.8929 0 -4.76837e-05 -0.000191285 8.49888e-06 90.535 -28.4725 0 -8.9407e-06 20.1785 0.0116769 12.1019 -0.0062 0.0497 0.0339 1.61149e-43 0 0 0 0.0215 0 0 -1.61149e-43 0 0 0.022 0 0 -1.61149e-43 0 0 0.017 0 0 0 0 0.0068 0.0873 0.0207 1.61149e-43 0 0 0 0.0267 0 3.20897e-43 0 0 0 0.0213 0 4.00771e-43 0 0 0 0.018 0 0 0 0 0.0067 0.0922 0.0055 1.61149e-43 0 0 0 0.0266 0 3.20897e-43 0 0 0 0.0228 0 4.00771e-43 0 0 0 0.015 0 0 0 0 0.0067 0.0925 -0.0113 1.61149e-43 0 0 0 0.0247 0 3.20897e-43 0 0 0 0.0221 0 4.00771e-43 0 0 0 0.018 0 0 0 0 0.0066 0.0935 -0.0272 1.61149e-43 0 0 0 0.0163 0 3.20897e-43 0 0 0 0.0171 0 4.00771e-43 0 0 0 0.018 0 0 0 0 -4.47035e-06 39.4263 -4.76837e-05 -3.21537 5.5267 0.309995 -1.49012e-06 18.4663 -4.76837e-05 9.60495e-06 -1.19528e-05 4.26887e-07 
5.23359 27.4223 -247.674 0.269928 14.8305 -3.53596 8.01144 -7.3575 2.68302 5.83324 -11.2288 0.948274 -3.72529e-07 -47.875 4.76837e-05 -3.60478 8.9467 0.561321 2.04891e-06 -40.7756 -7.15256e-05 11.6164 -17.9094 10.091 -7.83839 -7.37651 2.63312 -0.555547 -16.464 -0.350049 2.98023e-06 -47.6162 -2.38419e-05 3.89131 11.9799 -0.808906 -1.49012e-06 -41.1633 9.53674e-05 -10.1757 -16.0198 -8.54011 2.23517e-06 6.12849 -6.12845 0.713752 -12.2958 -0.845053 -1.49012e-06 39.4263 2.38419e-05 -33.1705 1.4941e-05 -1.93733 20.8976 -2.98023e-06 -2.38419e-05 -40.5322 44.8813 -8.61535 24.8024 -2.38419e-05 2.38419e-05 5.80367e-05 -1.02453e-05 -84.8959 29.1653 -5.96046e-05 1.19209e-05 -15.0955 0.0503116 1.28752 0.0062 0.0497 0.0339 0 0 0 0 0.0215 0 0 0 0 0 0.022 0 0 0 0 0 0.017 0 0 0 0 -0.0068 0.0873 0.0207 0 0 0 0 0.0267 0 0 0 0 0 0.0213 0 0 0 0 0 0.018 0 0 0 0 -0.0067 0.0922 0.0055 0 0 0 0 0.0266 0 0 0 0 0 0.0228 0 0 0 0 0 0.015 0 0 0 0 -0.0067 0.0925 -0.0113 0 0 0 0 0.0247 0 0 0 0 0 0.0221 0 0 0 0 0 0.018 0 0 0 0 -0.0066 0.0935 -0.0272 0 0 0 0 0.0163 0 0 0 0 0 0.0171 0 0 0 0 0 0.018 0 0 0 0 -1.49012e-06 39.4263 2.38419e-05 30.1155 -1.92766e-06 2.0181 -20.0615 -1.78814e-05 2.38419e-05 43.0213 37.018 -1.08009 -25.0342 -2.38419e-05 0 0.000614609 1.54514e-05 90.8038 -28.3841 0 -2.98023e-06 19.9688 0.0022553 11.6221 -0.0062 0.0497 0.0339 1.61149e-43 0 0 0 0.0215 0 0 -1.61149e-43 0 0 0.022 0 0 -1.61149e-43 0 0 0.017 0 0 0 0 0.0068 0.0873 0.0207 1.61149e-43 0 0 0 0.0267 0 3.20897e-43 0 0 0 0.0213 0 4.00771e-43 0 0 0 0.018 0 0 0 0 0.0067 0.0922 0.0055 1.61149e-43 0 0 0 0.0266 0 3.20897e-43 0 0 0 0.0228 0 4.00771e-43 0 0 0 0.015 0 0 0 0 0.0067 0.0925 -0.0113 1.61149e-43 0 0 0 0.0247 0 3.20897e-43 0 0 0 0.0221 0 4.00771e-43 0 0 0 0.018 0 0 0 0 0.0066 0.0935 -0.0272 1.61149e-43 0 0 0 0.0163 0 3.20897e-43 0 0 0 0.0171 0 4.00771e-43 0 0 0 0.018 0 0 0 0 -1.49012e-06 39.4263 2.38419e-05 -3.5066 5.91223 0.361643 -2.98023e-06 18.3235 -2.38419e-05 1.00318e-05 -9.39151e-06 1.70755e-06 
5.23359 27.4223 -247.674 0.269928 14.8305 -3.53596 8.01144 -7.3575 2.68302 5.83324 -11.2288 0.948274 -3.72529e-07 -47.875 4.76837e-05 -3.60478 8.9467 0.561321 2.04891e-06 -40.7756 -7.15256e-05 11.6164 -17.9094 10.091 -7.83839 -7.37651 2.63312 -0.555547 -16.464 -0.350049 2.98023e-06 -47.6162 -2.38419e-05 3.89131 11.9799 -0.808906 -1.49012e-06 -41.1633 9.53674e-05 -10.1757 -16.0198 -8.54011 2.23517e-06 6.12849 -6.12845 0.713752 -12.2958 -0.845053 -1.49012e-06 39.4263 2.38419e-05 -33.1705 1.4941e-05 -1.93733 20.8976 -2.98023e-06 -2.38419e-05 -40.5322 44.8813 -8.61535 24.8024 -2.38419e-05 2.38419e-05 5.80367e-05 -1.02453e-05 -84.8959 29.1653 -5.96046e-05 1.19209e-05 -15.0955 0.0503116 1.28752 0.0062 0.0497 0.0339 0 0 0 0 0.0215 0 0 0 0 0 0.022 0 0 0 0 0 0.017 0 0 0 0 -0.0068 0.0873 0.0207 0 0 0 0 0.0267 0 0 0 0 0 0.0213 0 0 0 0 0 0.018 0 0 0 0 -0.0067 0.0922 0.0055 0 0 0 0 0.0266 0 0 0 0 0 0.0228 0 0 0 0 0 0.015 0 0 0 0 -0.0067 0.0925 -0.0113 0 0 0 0 0.0247 0 0 0 0 0 0.0221 0 0 0 0 0 0.018 0 0 0 0 -0.0066 0.0935 -0.0272 0 0 0 0 0.0163 0 0 0 0 0 0.0171 0 0 0 0 0 0.018 0 0 0 0 -1.49012e-06 39.4263 2.38419e-05 30.1155 -1.92766e-06 2.0181 -20.0615 -1.78814e-05 2.38419e-05 43.0213 37.018 -1.08009 -25.0342 -2.38419e-05 0 0.000614609 1.54514e-05 90.8038 -28.3841 0 -2.98023e-06 19.9688 0.0022553 11.6221 -0.0062 0.0497 0.0339 1.61149e-43 0 0 0 0.0215 0 0 -1.61149e-43 0 0 0.022 0 0 -1.61149e-43 0 0 0.017 0 0 0 0 0.0068 0.0873 0.0207 1.61149e-43 0 0 0 0.0267 0 3.20897e-43 0 0 0 0.0213 0 4.00771e-43 0 0 0 0.018 0 0 0 0 0.0067 0.0922 0.0055 1.61149e-43 0 0 0 0.0266 0 3.20897e-43 0 0 0 0.0228 0 4.00771e-43 0 0 0 0.015 0 0 0 0 0.0067 0.0925 -0.0113 1.61149e-43 0 0 0 0.0247 0 3.20897e-43 0 0 0 0.0221 0 4.00771e-43 0 0 0 0.018 0 0 0 0 0.0066 0.0935 -0.0272 1.61149e-43 0 0 0 0.0163 0 3.20897e-43 0 0 0 0.0171 0 4.00771e-43 0 0 0 0.018 0 0 0 0 -1.49012e-06 39.4263 2.38419e-05 -3.5066 5.91223 0.361643 -2.98023e-06 18.3235 -2.38419e-05 1.00318e-05 -9.39151e-06 1.70755e-06 
5.23359 27.4223 -247.674 0.269928 14.8305 -3.53596 8.01144 -7.3575 2.68302 5.83324 -11.2288 0.948274 -3.72529e-07 -47.875 4.76837e-05 -3.60478 8.9467 0.561321 2.04891e-06 -40.7756 -7.15256e-05 11.6164 -17.9094 10.091 -7.83839 -7.37651 2.63312 -0.555547 -16.464 -0.350049 2.98023e-06 -47.6162 -2.38419e-05 3.89131 11.9799 -0.808906 -1.49012e-06 -41.1633 9.53674e-05 -10.1757 -16.0198 -8.54011 2.23517e-06 6.12849 -6.12845 0.713752 -12.2958 -0.845053 -1.49012e-06 39.4263 2.38419e-05 -33.1705 1.4941e-05 -1.93733 20.8976 -2.98023e-06 -2.38419e-05 -40.5322 44.8813 -8.61535 24.8024 -2.38419e-05 2.38419e-05 5.80367e-05 -1.02453e-05 -84.8959 29.1653 -5.96046e-05 1.19209e-05 -15.0955 0.0503116 1.28752 0.0062 0.0497 0.0339 0 0 0 0 0.0215 0 0 0 0 0 0.022 0 0 0 0 0 0.017 0 0 0 0 -0.0068 0.0873 0.0207 0 0 0 0 0.0267 0 0 0 0 0 0.0213 0 0 0 0 0 0.018 0 0 0 0 -0.0067 0.0922 0.0055 0 0 0 0 0.0266 0 0 0 0 0 0.0228 0 0 0 0 0 0.015 0 0 0 0 -0.0067 0.0925 -0.0113 0 0 0 0 0.0247 0 0 0 0 0 0.0221 0 0 0 0 0 0.018 0 0 0 0 -0.0066 0.0935 -0.0272 0 0 0 0 0.0163 0 0 0 0 0 0.0171 0 0 0 0 0 0.018 0 0 0 0 -1.49012e-06 39.4263 2.38419e-05 30.1155 -1.92766e-06 2.0181 -20.0615 -1.78814e-05 2.38419e-05 43.0213 37.018 -1.08009 -25.0342 -2.38419e-05 0 0.000614609 1.54514e-05 90.8038 -28.3841 0 -2.98023e-06 19.9688 0.0022553 11.6221 -0.0062 0.0497 0.0339 1.61149e-43 0 0 0 0.0215 0 0 -1.61149e-43 0 0 0.022 0 0 -1.61149e-43 0 0 0.017 0 0 0 0 0.0068 0.0873 0.0207 1.61149e-43 0 0 0 0.0267 0 3.20897e-43 0 0 0 0.0213 0 4.00771e-43 0 0 0 0.018 0 0 0 0 0.0067 0.0922 0.0055 1.61149e-43 0 0 0 0.0266 0 3.20897e-43 0 0 0 0.0228 0 4.00771e-43 0 0 0 0.015 0 0 0 0 0.0067 0.0925 -0.0113 1.61149e-43 0 0 0 0.0247 0 3.20897e-43 0 0 0 0.0221 0 4.00771e-43 0 0 0 0.018 0 0 0 0 0.0066 0.0935 -0.0272 1.61149e-43 0 0 0 0.0163 0 3.20897e-43 0 0 0 0.0171 0 4.00771e-43 0 0 0 0.018 0 0 0 0 -1.49012e-06 39.4263 2.38419e-05 -3.5066 5.91223 0.361643 -2.98023e-06 18.3235 -2.38419e-05 1.00318e-05 -9.39151e-06 1.70755e-06 
5.13175 27.4247 -247.587 0.296761 14.9359 -3.55815 8.01005 -7.35936 2.68259 5.84586 -11.273 1.04612 3.72529e-07 -47.9023 -4.76837e-05 -3.52862 8.93545 0.548748 3.72529e-07 -40.7477 2.38419e-05 11.5522 -18.01 10.0497 -7.83777 -7.36168 2.65486 -0.532164 -16.4774 -0.249495 -7.45058e-06 -47.6225 0 3.94084 11.9059 -0.814247 4.47035e-06 -41.1878 0 -10.2499 -16.1349 -8.62051 1.49012e-06 6.12306 -6.12309 0.713991 -12.4075 -0.846021 0 39.4263 0 -33.1988 1.32335e-05 -1.8958 20.873 -3.57628e-05 2.38419e-05 -40.4895 44.7412 -8.63734 24.7856 -1.19209e-05 1.19209e-05 0.000134282 -1.70755e-06 -84.8903 29.1748 -1.19209e-05 5.96046e-06 -14.7182 0.0409949 1.27896 0.0062 0.0497 0.0339 0 0 0 0 0.0215 0 0 0 0 0 0.022 0 0 0 0 0 0.017 0 0 0 0 -0.0068 0.0873 0.0207 0 0 0 0 0.0267 0 0 0 0 0 0.0213 0 0 0 0 0 0.018 0 0 0 0 -0.0067 0.0922 0.0055 0 0 0 0 0.0266 0 0 0 0 0 0.0228 0 0 0 0 0 0.015 0 0 0 0 -0.0067 0.0925 -0.0113 0 0 0 0 0.0247 0 0 0 0 0 0.0221 0 0 0 0 0 0.018 0 0 0 0 -0.0066 0.0935 -0.0272 0 0 0 0 0.0163 0 0 0 0 0 0.0171 0 0 0 0 0 0.018 0 0 0 0 0 39.4263 0 30.0855 -3.35506e-06 1.97274 -20.0592 -5.96046e-06 -2.38419e-05 42.8555 37.1275 -0.929055 -25.0752 1.19209e-05 9.53674e-05 -0.000314202 1.68456e-06 90.9257 -28.5808 0 -1.49012e-05 20.1823 -0.00108798 11.4789 -0.0062 0.0497 0.0339 1.61149e-43 0 0 0 0.0215 0 0 -1.61149e-43 0 0 0.022 0 0 -1.61149e-43 0 0 0.017 0 0 0 0 0.0068 0.0873 0.0207 1.61149e-43 0 0 0 0.0267 0 3.20897e-43 0 0 0 0.0213 0 4.00771e-43 0 0 0 0.018 0 0 0 0 0.0067 0.0922 0.0055 1.61149e-43 0 0 0 0.0266 0 3.20897e-43 0 0 0 0.0228 0 4.00771e-43 0 0 0 0.015 0 0 0 0 0.0067 0.0925 -0.0113 1.61149e-43 0 0 0 0.0247 0 3.20897e-43 0 0 0 0.0221 0 4.00771e-43 0 0 0 0.018 0 0 0 0 0.0066 0.0935 -0.0272 1.61149e-43 0 0 0 0.0163 0 3.20897e-43 0 0 0 0.0171 0 4.00771e-43 0 0 0 0.018 0 0 0 0 0 39.4263 0 -3.58847 6.03491 0.377761 -2.98023e-06 18.286 0 9.49823e-06 -1.28066e-05 4.26887e-07 
5.04058 27.4317 -247.51 0.320382 15.0439 -3.54946 8.01042 -7.36302 2.68588 5.85152 -11.3346 1.12449 -1.86265e-06 -47.9236 0 -3.46204 8.94206 0.538764 -4.47035e-06 -40.7202 -2.38419e-05 11.4799 -18.1126 10.0015 -7.83814 -7.349 2.67479 -0.518202 -16.4974 -0.171187 -4.47035e-06 -47.6303 -7.15256e-05 3.97977 11.8268 -0.816926 1.49012e-06 -41.1955 2.38419e-05 -10.3076 -16.2287 -8.68405 0 6.11751 -6.11751 0.716795 -12.5175 -0.848814 1.49012e-06 39.4263 -2.38419e-05 -33.2184 9.8184e-06 -1.84392 20.8648 0 -4.76837e-05 -40.4615 44.6447 -8.70161 24.7749 -2.38419e-05 0 0.000190669 5.12265e-06 -84.8681 29.184 -3.57628e-05 1.49012e-05 -14.5476 0.0337807 1.27413 0.0062 0.0497 0.0339 0 0 0 0 0.0215 0 0 0 0 0 0.022 0 0 0 0 0 0.017 0 0 0 0 -0.0068 0.0873 0.0207 0 0 0 0 0.0267 0 0 0 0 0 0.0213 0 0 0 0 0 0.018 0 0 0 0 -0.0067 0.0922 0.0055 0 0 0 0 0.0266 0 0 0 0 0 0.0228 0 0 0 0 0 0.015 0 0 0 0 -0.0067 0.0925 -0.0113 0 0 0 0 0.0247 0 0 0 0 0 0.0221 0 0 0 0 0 0.018 0 0 0 0 -0.0066 0.0935 -0.0272 0 0 0 0 0.0163 0 0 0 0 0 0.0171 0 0 0 0 0 0.018 0 0 0 0 1.49012e-06 39.4263 -2.38419e-05 30.0599 -4.25553e-06 1.9181 -20.0581 -5.96046e-06 0 42.7314 37.2328 -0.797811 -25.1141 -1.19209e-05 -2.38419e-05 -0.000372458 -1.61478e-06 91.0211 -28.7415 2.38419e-05 0 20.505 -0.00162722 11.4165 -0.0062 0.0497 0.0339 1.61149e-43 0 0 0 0.0215 0 0 -1.61149e-43 0 0 0.022 0 0 -1.61149e-43 0 0 0.017 0 0 0 0 0.0068 0.0873 0.0207 1.61149e-43 0 0 0 0.0267 0 3.20897e-43 0 0 0 0.0213 0 4.00771e-43 0 0 0 0.018 0 0 0 0 0.0067 0.0922 0.0055 1.61149e-43 0 0 0 0.0266 0 3.20897e-43 0 0 0 0.0228 0 4.00771e-43 0 0 0 0.015 0 0 0 0 0.0067 0.0925 -0.0113 1.61149e-43 0 0 0 0.0247 0 3.20897e-43 0 0 0 0.0221 0 4.00771e-43 0 0 0 0.018 0 0 0 0 0.0066 0.0935 -0.0272 1.61149e-43 0 0 0 0.0163 0 3.20897e-43 0 0 0 0.0171 0 4.00771e-43 0 0 0 0.018 0 0 0 0 1.49012e-06 39.4263 -2.38419e-05 -3.69283 6.11838 0.394134 -1.49012e-06 18.2486 -4.76837e-05 1.0939e-05 -9.39151e-06 -4.26887e-07 
